<svg width="128" height="128" viewBox="0 0 128 128" fill="none" xmlns="http://www.w3.org/2000/svg">
<rect width="9.13626" height="18.2725" transform="matrix(-1 0 0 1 114.635 91.3628)" fill="#E94C71"/>
<rect width="9.13626" height="36.545" transform="matrix(-1 0 0 1 123.771 54.8177)" fill="#E94C71"/>
<rect width="9.13626" height="36.545" transform="matrix(-1 0 0 1 114.635 54.8177)" fill="#E94C71"/>
<rect x="50.6813" y="45.6811" width="27.4088" height="9.13626" fill="#E94C71"/>
<rect x="68.9537" y="18.2723" width="27.4088" height="9.13626" transform="rotate(90 68.9537 18.2723)" fill="#E94C71"/>
<rect x="41.5448" y="118.771" width="54.8176" height="9.13626" fill="#E94C71"/>
<rect x="23.2724" y="36.5446" width="27.4088" height="9.13626" fill="#E94C71"/>
<rect width="9.13626" height="9.13626" transform="matrix(-1 0 0 1 23.2724 45.6811)" fill="#E94C71"/>
<rect width="9.13626" height="18.2725" transform="matrix(-1 0 0 1 32.4086 100.499)" fill="#E94C71"/>
<rect width="9.13626" height="18.2725" transform="matrix(-1 0 0 1 105.499 100.499)" fill="#E94C71"/>
<rect width="9.13626" height="18.2725" transform="matrix(-1 0 0 1 41.5448 109.727)" fill="#E94C71"/>
<rect width="9.13626" height="18.2725" transform="matrix(-1 0 0 1 96.3625 109.727)" fill="#E94C71"/>
<rect width="4.59115" height="4.58481" transform="matrix(-1 0 0 1 96.3625 105.143)" fill="#E94C71"/>
<rect width="4.59115" height="4.58481" transform="matrix(-1 0 0 1 87.2263 105.143)" fill="#E94C71"/>
<rect width="4.59115" height="4.58481" transform="matrix(-1 0 0 1 96.3625 96.0989)" fill="#E94C71"/>
<rect width="4.59115" height="4.58481" transform="matrix(-1 0 0 1 96.3625 87.0552)" fill="#E94C71"/>
<rect width="4.59115" height="4.58481" transform="matrix(-1 0 0 1 96.3625 78.0699)" fill="#E94C71"/>
<rect width="4.59115" height="4.58481" transform="matrix(-1 0 0 1 96.3625 68.5052)" fill="#E94C71"/>
<rect width="4.59115" height="4.58481" transform="matrix(-1 0 0 1 96.3625 59.5829)" fill="#E94C71"/>
<rect width="4.59115" height="4.58481" transform="matrix(-1 0 0 1 105.499 96.0989)" fill="#E94C71"/>
<rect width="4.59115" height="4.58481" transform="matrix(-1 0 0 1 105.499 87.0552)" fill="#E94C71"/>
<rect width="4.59115" height="4.58481" transform="matrix(-1 0 0 1 105.499 68.5052)" fill="#E94C71"/>
<rect width="4.59115" height="4.58481" transform="matrix(-1 0 0 1 105.499 78.0699)" fill="#E94C71"/>
<rect width="4.59115" height="4.58481" transform="matrix(-1 0 0 1 105.499 59.5829)" fill="#E94C71"/>
<rect width="4.59115" height="4.58481" transform="matrix(-1 0 0 1 87.2263 96.0989)" fill="#E94C71"/>
<rect width="4.59115" height="4.58481" transform="matrix(-1 0 0 1 87.2263 87.0552)" fill="#E94C71"/>
<rect width="4.59115" height="4.58481" transform="matrix(-1 0 0 1 87.2263 78.0699)" fill="#E94C71"/>
<rect width="4.59115" height="4.58481" transform="matrix(-1 0 0 1 87.2263 68.5052)" fill="#E94C71"/>
<rect width="4.59115" height="4.58481" transform="matrix(-1 0 0 1 78.0902 105.143)" fill="#E94C71"/>
<rect width="4.59115" height="4.58481" transform="matrix(-1 0 0 1 87.2263 114.186)" fill="#E94C71"/>
<rect width="4.59115" height="4.58481" transform="matrix(-1 0 0 1 68.7764 114.186)" fill="#E94C71"/>
<rect width="4.59115" height="4.58481" transform="matrix(-1 0 0 1 78.0902 96.0989)" fill="#E94C71"/>
<rect width="4.59115" height="4.58481" transform="matrix(-1 0 0 1 78.0902 87.0552)" fill="#E94C71"/>
<rect width="4.59115" height="4.58481" transform="matrix(-1 0 0 1 78.0902 78.0699)" fill="#E94C71"/>
<rect width="4.59115" height="4.58481" transform="matrix(-1 0 0 1 68.9541 105.143)" fill="#E94C71"/>
<rect width="4.59115" height="4.58481" transform="matrix(-1 0 0 1 59.818 105.143)" fill="#E94C71"/>
<rect width="4.59115" height="4.58481" transform="matrix(-1 0 0 1 91.8174 100.558)" fill="#E94C71"/>
<rect width="4.59115" height="4.58481" transform="matrix(-1 0 0 1 82.6813 100.558)" fill="#E94C71"/>
<rect width="4.59115" height="4.58481" transform="matrix(-1 0 0 1 78.0902 114.186)" fill="#E94C71"/>
<rect width="4.59115" height="4.58481" transform="matrix(-1 0 0 1 59.7519 114.186)" fill="#E94C71"/>
<rect width="4.59115" height="4.58481" transform="matrix(-1 0 0 1 50.5697 114.186)" fill="#E94C71"/>
<rect width="4.59115" height="4.58481" transform="matrix(-1 0 0 1 73.5451 100.558)" fill="#E94C71"/>
<rect width="4.59115" height="4.58481" transform="matrix(-1 0 0 1 68.9541 96.0989)" fill="#E94C71"/>
<rect width="4.59115" height="4.58481" transform="matrix(-1 0 0 1 68.9541 87.0552)" fill="#E94C71"/>
<rect width="4.59115" height="4.58481" transform="matrix(-1 0 0 1 64.409 100.558)" fill="#E94C71"/>
<rect width="4.59115" height="4.58481" transform="matrix(-1 0 0 1 59.818 96.0989)" fill="#E94C71"/>
<rect width="4.59115" height="4.58481" transform="matrix(-1 0 0 1 91.8174 91.5141)" fill="#E94C71"/>
<rect width="4.59115" height="4.58481" transform="matrix(-1 0 0 1 91.8174 63.9204)" fill="#E94C71"/>
<rect width="4.59115" height="4.58481" transform="matrix(-1 0 0 1 91.8174 82.4704)" fill="#E94C71"/>
<rect width="4.59115" height="4.58481" transform="matrix(-1 0 0 1 91.8174 73.4851)" fill="#E94C71"/>
<rect width="4.59115" height="4.58481" transform="matrix(-1 0 0 1 100.954 63.9204)" fill="#E94C71"/>
<rect width="4.59115" height="4.58481" transform="matrix(-1 0 0 1 100.954 91.5141)" fill="#E94C71"/>
<rect width="4.59115" height="4.58481" transform="matrix(-1 0 0 1 100.954 82.4704)" fill="#E94C71"/>
<rect width="4.59115" height="4.58481" transform="matrix(-1 0 0 1 100.954 73.4851)" fill="#E94C71"/>
<rect width="4.59115" height="4.76562" transform="matrix(-1 0 0 1 100.954 54.8173)" fill="#E94C71"/>
<rect width="4.59115" height="4.58481" transform="matrix(-1 0 0 1 82.6813 91.5141)" fill="#E94C71"/>
<rect width="4.59115" height="4.58481" transform="matrix(-1 0 0 1 82.6813 82.4704)" fill="#E94C71"/>
<rect width="4.59115" height="4.58481" transform="matrix(-1 0 0 1 82.6813 73.4851)" fill="#E94C71"/>
<rect width="4.59115" height="4.58481" transform="matrix(-1 0 0 1 82.6813 109.602)" fill="#E94C71"/>
<rect width="4.59115" height="4.58481" transform="matrix(-1 0 0 1 64.3429 109.602)" fill="#E94C71"/>
<rect width="4.59115" height="4.58481" transform="matrix(-1 0 0 1 55.1608 109.602)" fill="#E94C71"/>
<rect width="4.59115" height="4.58481" transform="matrix(-1 0 0 1 73.5451 91.5141)" fill="#E94C71"/>
<rect width="4.59115" height="4.58481" transform="matrix(-1 0 0 1 73.5451 82.4704)" fill="#E94C71"/>
<rect width="4.59115" height="4.58481" transform="matrix(-1 0 0 1 73.5451 109.602)" fill="#E94C71"/>
<rect width="4.59115" height="4.58481" transform="matrix(-1 0 0 1 64.409 91.5141)" fill="#E94C71"/>
<rect width="9.13626" height="18.2725" transform="matrix(-1 0 0 1 23.2724 91.3628)" fill="#E94C71"/>
<rect width="9.13626" height="18.2725" transform="matrix(1.19249e-08 -1 -1 -1.19249e-08 96.3625 18.2723)" fill="#FF9DB4"/>
<rect width="9.13626" height="36.545" transform="matrix(-1 0 0 1 14.1364 54.8177)" fill="#E94C71"/>
<rect x="78.0902" y="36.5446" width="27.4088" height="9.13626" fill="#E94C71"/>
<rect x="96.3625" y="45.6811" width="18.2725" height="9.17588" fill="#E94C71"/>
<rect x="114.635" y="9.13568" width="9.13626" height="18.2725" transform="rotate(90 114.635 9.13568)" fill="#E94C71"/>
<rect x="78.0902" y="9.13568" width="9.13626" height="9.13626" transform="rotate(90 78.0902 9.13568)" fill="#E94C71"/>
<rect x="59.8175" y="9.13568" width="9.13626" height="18.2725" transform="rotate(90 59.8175 9.13568)" fill="#E94C71"/>
<rect x="50.6813" width="9.13626" height="18.2725" transform="rotate(90 50.6813 0)" fill="#E94C71"/>
<rect x="78.0902" width="36.545" height="9.13626" fill="#E94C71"/>
<rect x="50.6813" y="18.2723" width="54.8176" height="9.13626" fill="#E94C71"/>
</svg>
